# xmcd CD database file
#
# Track frame offsets:
#	150
#	12380
#	30215
#	42935
#	56689
#	70142
#	84125
#	99470
#	112365
#	125177
#	141045
#	152647
#	165967
#	179335
#	192365
#	209382
#	224817
#	238805
#	256960
#	272192
#	285957
#	299330
#	312175
#
# Disc length: 4337 seconds
#
# Revision: 0
# Processed by: cddbd v1.4PL0 Copyright (c) Steve Scherf et al.
# Submitted via: CDex 1.40Release
#
DISCID=5610ef17
DTITLE=Tião Carreiro e Pardinho - Dose Dupla - Volume 8
DYEAR=2003
DGENRE=Country
TTITLE0=Viola cabocla
TTITLE1=Menino da porteira
TTITLE2=Cavalo enxuto
TTITLE3=Casando fugido
TTITLE4=Vencendo sempre
TTITLE5=As três verdades
TTITLE6=Vou tomá um pingão
TTITLE7=Arrependida
TTITLE8=Pretinho aleijado
TTITLE9=Meu passado
TTITLE10=Arroz à carreteira
TTITLE11=Novo amor
TTITLE12=Sou louco por ela
TTITLE13=Raízes do amor
TTITLE14=Negrinho parafuso
TTITLE15=No som da viola
TTITLE16=O patrão e o empregado
TTITLE17=A coisa tá feia
TTITLE18=Amor e saudade
TTITLE19=Velho amor
TTITLE20=Estrela da madrugada
TTITLE21=Paixão dupla
TTITLE22=Rainha do lar
EXTD=YEAR: 2003 ID3G: 2
EXTT0=
EXTT1=
EXTT2=
EXTT3=
EXTT4=
EXTT5=
EXTT6=
EXTT7=
EXTT8=
EXTT9=
EXTT10=
EXTT11=
EXTT12=
EXTT13=
EXTT14=
EXTT15=
EXTT16=
EXTT17=
EXTT18=
EXTT19=
EXTT20=
EXTT21=
EXTT22=
PLAYORDER=
